<?xml version="1.0" encoding="UTF-8"?><svg width="60" height="60" fill="none" xmlns="http://www.w3.org/2000/svg"><path d="M50.9 20h1.8a3.5 3.5 0 0 1 3.5 3.6v21.8a3.5 3.5 0 0 1-3.5 3.5H14a3.5 3.5 0 0 1-3.5-3.5v-2.7" stroke="#999CA8" stroke-width="2" stroke-linecap="round" stroke-linejoin="round"/><path d="M44.7 11H7A3.9 3.9 0 0 0 3 14.9V36c0 2.1 1.7 3.9 3.9 3.9h37.8c2.2 0 3.9-1.8 3.9-3.9V14.9c0-2.2-1.7-3.9-3.9-3.9z" stroke="#999CA8" stroke-width="2" stroke-linecap="round" stroke-linejoin="round"/><path d="M40.5 26.9a3.8 3.8 0 0 0-3.8 3.5 3.8 3.8 0 1 0 3.8-3.5z" fill="#FABB1A"/><path d="M35.8 26.9a3.8 3.8 0 0 0-3.8 3.5 3.8 3.8 0 1 0 3.8-3.5z" fill="#FABB1A"/><path d="M48.6 15.4H3v5.4h45.6v-5.4zM13.3 31.7H7.9c-.5 0-.9.4-.9.9v1c0 .5.4.9 1 .9h5.3c.5 0 .9-.4.9-.9v-1c0-.5-.4-.9-1-.9zM23.3 26.6H8c-.5 0-.9.3-.9.8v1c0 .5.4 1 1 1h15.3c.5 0 .9-.5.9-1v-1c0-.5-.4-.8-.9-.8zM23.3 31.7H18c-.5 0-1 .4-1 .9v1c0 .5.5.9 1 .9h5.3c.5 0 .9-.4.9-.9v-1c0-.5-.4-.9-.9-.9z" fill="#999CA8"/></svg>